<svg width="60" height="60" viewBox="0 0 60 60" fill="none" xmlns="http://www.w3.org/2000/svg">
<rect width="60" height="60" rx="10" fill="#E95D39"/>
<path d="M15.75 45V15.41H23.615L25.265 18.325C26.255 17.445 27.5383 16.6567 29.115 15.96C30.7283 15.2633 32.3783 14.915 34.065 14.915C36.5583 14.915 38.465 15.3917 39.785 16.345C41.105 17.2983 42.0033 18.6 42.48 20.25C42.9933 21.9 43.25 23.715 43.25 25.695V45H33.735V26.96C33.735 26.1167 33.5883 25.4383 33.295 24.925C33.0017 24.4117 32.5983 24.045 32.085 23.825C31.5717 23.5683 30.9667 23.44 30.27 23.44C29.6467 23.44 29.0233 23.5317 28.4 23.715C27.7767 23.8617 27.2083 24.0817 26.695 24.375C26.1817 24.6683 25.705 24.9983 25.265 25.365V45H15.75Z" fill="#382A4E"/>
</svg>
