<svg width="251" height="274" viewBox="0 0 251 274" fill="none" xmlns="http://www.w3.org/2000/svg">
<path d="M0.0859379 274V4.99998H71.5859L86.5859 31.5C95.5859 23.5 107.253 16.3333 121.586 10C136.253 3.66665 151.253 0.499975 166.586 0.499975C189.253 0.499975 206.586 4.83331 218.586 13.5C230.586 22.1667 238.753 34 243.086 49C247.753 64 250.086 80.5 250.086 98.5V274H163.586V110C163.586 102.333 162.253 96.1667 159.586 91.5C156.919 86.8333 153.253 83.5 148.586 81.5C143.919 79.1667 138.419 78 132.086 78C126.419 78 120.753 78.8333 115.086 80.5C109.419 81.8333 104.253 83.8333 99.5859 86.5C94.9193 89.1667 90.5859 92.1667 86.5859 95.5V274H0.0859379Z" fill="#04132E"/>
</svg>
