<svg width="200" height="219" viewBox="0 0 200 219" fill="none" xmlns="http://www.w3.org/2000/svg">
<path d="M2.98023e-07 219V3.79998H57.2L69.2 25C76.4 18.6 85.7333 12.8667 97.2 7.8C108.933 2.73332 120.933 0.19998 133.2 0.19998C151.333 0.19998 165.2 3.66665 174.8 10.6C184.4 17.5333 190.933 27 194.4 39C198.133 51 200 64.2 200 78.6V219H130.8V87.8C130.8 81.6667 129.733 76.7333 127.6 73C125.467 69.2667 122.533 66.6 118.8 65C115.067 63.1333 110.667 62.2 105.6 62.2C101.067 62.2 96.5333 62.8667 92 64.2C87.4667 65.2667 83.3333 66.8667 79.6 69C75.8667 71.1333 72.4 73.5333 69.2 76.2V219H2.98023e-07Z" fill="#F0C3B8"/>
</svg>
